<svg width="72" height="65" viewBox="0 0 72 65" fill="none" xmlns="http://www.w3.org/2000/svg">
<path d="M0.212097 32.2077C0.212097 37.6379 5.48904 42.7071 13.8086 45.5645C12.1473 53.9686 13.5108 60.7423 18.0654 63.3817C22.747 66.0945 29.7215 64.2167 36.3412 58.4023C42.7938 63.9819 49.3154 66.1778 53.8657 63.5309C58.5428 60.8102 59.9654 53.5771 58.2581 44.9107C66.9234 42.0319 71.7705 37.7094 71.7705 32.2077C71.7705 26.9035 66.4838 22.3146 58.2764 19.4756C60.1144 10.4509 58.557 3.84162 53.8139 1.0932C49.2411 -1.55645 42.6438 0.752992 36.0962 6.47874C29.2846 0.401311 22.7524 -1.4542 18.0139 1.30223C13.4455 3.95941 12.1419 10.8562 13.8086 19.4159C5.76996 22.2322 0.212097 26.9247 0.212097 32.2077Z" fill="white"/>
<path d="M56.5381 22.2949C55.8789 22.0669 55.1958 21.8511 54.4924 21.6471C54.608 21.173 54.7141 20.705 54.8085 20.245C56.357 12.6917 55.3445 6.6066 51.887 4.60313C48.5718 2.68208 43.1499 4.68509 37.674 9.47357C37.1475 9.93403 36.6194 10.4215 36.0916 10.9325C35.7399 10.5944 35.3888 10.2677 35.0386 9.95528C29.2998 4.83512 23.5474 2.67742 20.0934 4.68668C16.7813 6.6133 15.8004 12.3338 17.1944 19.4922C17.329 20.1837 17.4863 20.8897 17.6643 21.6077C16.8501 21.8399 16.0642 22.0874 15.3122 22.3508C8.584 24.7079 4.28708 28.402 4.28708 32.2338C4.28708 36.1912 8.89983 40.1606 15.9078 42.5675C16.4608 42.7574 17.0346 42.937 17.626 43.1075C17.4341 43.884 17.2671 44.6448 17.1269 45.387C15.7978 52.4211 16.8358 58.0065 20.1391 59.921C23.5511 61.8981 29.2774 59.8659 34.8533 54.9683C35.294 54.5811 35.7363 54.1705 36.1794 53.7402C36.7537 54.2959 37.3271 54.8218 37.8974 55.3152C43.2984 59.9853 48.6327 61.8711 51.933 59.9513C55.3416 57.9686 56.4493 51.9685 55.0112 44.6685C54.9013 44.111 54.7735 43.5414 54.6299 42.9617C55.0321 42.8422 55.4269 42.7189 55.8118 42.5907C63.0972 40.1652 67.8373 36.2441 67.8373 32.2338C67.8373 28.3881 63.4018 24.6691 56.5381 22.2949Z" fill="#53C1DE"/>
<path d="M54.958 40.0012C54.6105 40.1168 54.254 40.2286 53.8906 40.3369C53.0864 37.7784 52.0009 35.0578 50.6725 32.247C51.9401 29.5031 52.9836 26.8173 53.7654 24.2754C54.4155 24.4645 55.0465 24.6638 55.6545 24.8742C61.5353 26.9085 65.1225 29.9162 65.1225 32.2337C65.1225 34.7023 61.2484 37.9068 54.958 40.0012ZM52.3479 45.1982C52.9839 48.4262 53.0747 51.3447 52.6534 53.6262C52.275 55.6762 51.5138 57.043 50.5726 57.5904C48.5699 58.7553 44.287 57.2412 39.668 53.2472C39.1385 52.7894 38.6051 52.3005 38.0701 51.7831C39.8607 49.8152 41.6504 47.5275 43.3971 44.9867C46.4693 44.7128 49.3718 44.2649 52.0039 43.6535C52.1336 44.179 52.2487 44.6944 52.3479 45.1982ZM25.9528 57.3892C23.9961 58.0835 22.4377 58.1034 21.4956 57.5576C19.491 56.3958 18.6577 51.9113 19.7944 45.8957C19.9246 45.2068 20.0796 44.4991 20.2582 43.7757C22.8615 44.3542 25.7428 44.7704 28.8223 45.0213C30.5807 47.5075 32.4221 49.7927 34.2777 51.7936C33.8722 52.1869 33.4684 52.5613 33.0668 52.9142C30.6012 55.0798 28.1303 56.6163 25.9528 57.3892ZM16.7858 39.9861C13.687 38.9219 11.1279 37.5387 9.37381 36.0293C7.79762 34.673 7.00183 33.3264 7.00183 32.2337C7.00183 29.9085 10.4518 26.9426 16.2058 24.9267C16.904 24.6821 17.6349 24.4516 18.3933 24.2351C19.1885 26.8344 20.2317 29.552 21.4906 32.3001C20.2154 35.089 19.1574 37.8499 18.3544 40.4797C17.8137 40.3235 17.2899 40.1591 16.7858 39.9861ZM19.8587 18.9683C18.6644 12.8352 19.4575 8.20854 21.4535 7.04757C23.5796 5.81078 28.2809 7.57418 33.236 11.9952C33.5527 12.2778 33.8707 12.5735 34.1895 12.8795C32.3431 14.8717 30.5186 17.1398 28.7758 19.6113C25.787 19.8897 22.926 20.3368 20.2955 20.9356C20.1301 20.2672 19.9837 19.6104 19.8587 18.9683ZM47.2714 25.7699C46.6425 24.6785 45.997 23.6129 45.3389 22.5764C47.3665 22.8339 49.3092 23.1758 51.1336 23.5942C50.5859 25.3581 49.9032 27.2023 49.0996 29.0929C48.5231 27.9932 47.9134 26.8844 47.2714 25.7699ZM36.0925 14.8291C37.3448 16.1923 38.5988 17.7142 39.8322 19.3656C38.5893 19.3066 37.331 19.2759 36.0622 19.2759C34.8055 19.2759 33.5564 19.3059 32.3212 19.3639C33.5559 17.7279 34.8207 16.208 36.0925 14.8291ZM24.8421 25.7888C24.214 26.8833 23.6156 27.986 23.0482 29.0909C22.2576 27.2069 21.5812 25.3542 21.0288 23.5654C22.8419 23.1577 24.7755 22.8243 26.7902 22.5716C26.1228 23.6177 25.4719 24.6911 24.8421 25.7886V25.7888ZM26.8483 42.0904C24.7667 41.857 22.804 41.5408 20.9913 41.1444C21.5526 39.3236 22.2439 37.4314 23.0512 35.5068C23.6201 36.6108 24.2209 37.7141 24.8529 38.8109H24.853C25.4967 39.9284 26.1637 41.023 26.8483 42.0904ZM36.1677 49.8307C34.8809 48.4356 33.5975 46.8925 32.344 45.2327C33.5608 45.2806 34.8014 45.3052 36.0622 45.3052C37.3575 45.3052 38.6381 45.2759 39.8984 45.2195C38.6609 46.9092 37.4114 48.4547 36.1677 49.8307ZM49.1255 35.4087C49.9749 37.3541 50.691 39.2364 51.2595 41.0262C49.4169 41.4485 47.4275 41.7887 45.3314 42.0415C45.9911 40.991 46.6423 39.9071 47.2822 38.7922C47.9296 37.6642 48.5443 36.5345 49.1255 35.4087ZM44.9306 37.4293C43.9372 39.1601 42.9173 40.8123 41.882 42.3719C39.9962 42.5074 38.0479 42.5772 36.0622 42.5772C34.0846 42.5772 32.1609 42.5155 30.3084 42.3947C29.2313 40.8146 28.1893 39.1575 27.2022 37.4442H27.2024C26.218 35.7356 25.3119 34.0126 24.4909 32.2992C25.3117 30.5818 26.2154 28.8568 27.1942 27.1513L27.194 27.1516C28.1754 25.4415 29.2083 23.7925 30.2754 22.2223C32.1654 22.0788 34.1035 22.0038 36.0621 22.0038H36.0622C38.0297 22.0038 39.9702 22.0793 41.8597 22.2241C42.9105 23.7828 43.9364 25.4265 44.9217 27.1368C45.9181 28.8664 46.8335 30.5799 47.6613 32.2604C46.836 33.9698 45.9227 35.7006 44.9306 37.4293ZM50.531 6.96641C52.6591 8.19956 53.4867 13.1729 52.1496 19.6944C52.0643 20.1105 51.9683 20.5344 51.864 20.9639C49.2274 20.3526 46.3644 19.8977 43.3669 19.6152C41.6207 17.1165 39.8111 14.8449 37.9947 12.8782C38.4831 12.4062 38.9707 11.9561 39.4563 11.5313C44.1481 7.42857 48.5331 5.80873 50.531 6.96641Z" fill="white"/>
<path d="M36.0622 26.5315C39.1963 26.5315 41.737 29.0844 41.737 32.2337C41.737 35.3829 39.1963 37.936 36.0622 37.936C32.9281 37.936 30.3874 35.3829 30.3874 32.2337C30.3874 29.0844 32.9281 26.5315 36.0622 26.5315Z" fill="#53C1DE"/>
</svg>
